<?xml version="1.0" encoding="UTF-8" ?>
<!DOCTYPE svg PUBLIC "-//W3C//DTD SVG 1.1//EN" "http://www.w3.org/Graphics/SVG/1.1/DTD/svg11.dtd">
<svg width="1082pt" height="376pt" viewBox="0 0 1082 376" version="1.1" xmlns="http://www.w3.org/2000/svg">
<g id="#3b3b3dff">
<path fill="#3b3b3d" opacity="1.00" d=" M 164.11 1.32 C 167.69 0.21 171.50 0.76 175.13 1.25 C 181.21 2.22 187.21 3.83 192.96 6.02 C 198.03 7.88 201.03 12.76 205.73 15.20 C 208.96 17.07 212.62 18.14 215.66 20.33 C 217.35 21.26 215.90 23.11 214.74 23.69 C 210.97 25.29 206.74 24.30 202.86 23.67 C 192.01 21.37 181.34 17.82 171.59 12.45 C 168.34 10.53 164.87 8.54 162.72 5.33 C 161.52 3.90 162.33 1.72 164.11 1.32 Z" />
<path fill="#3b3b3d" opacity="1.00" d=" M 890.15 5.42 C 898.13 2.74 906.47 0.32 914.97 0.61 C 916.88 0.74 920.09 1.25 919.85 3.84 C 918.48 7.53 914.74 9.55 911.62 11.59 C 900.64 17.84 888.43 21.89 876.01 24.04 C 872.30 24.50 867.04 25.24 865.20 21.06 C 869.74 17.31 875.92 16.27 880.27 12.24 C 883.22 9.53 886.23 6.66 890.15 5.42 Z" />
<path fill="#3b3b3d" opacity="1.00" d=" M 226.52 9.40 C 227.35 6.56 231.33 5.63 233.41 7.69 C 235.03 9.07 234.99 11.40 234.22 13.21 C 230.49 23.83 226.75 34.45 223.03 45.07 C 226.25 46.44 229.33 48.13 232.59 49.42 C 312.22 79.48 391.83 109.57 471.46 139.63 C 472.64 140.29 473.82 139.31 474.92 138.95 C 490.80 131.47 507.00 124.67 523.47 118.61 C 529.22 116.70 534.91 114.22 540.99 113.65 C 545.73 114.06 550.22 115.81 554.72 117.24 C 573.85 123.87 592.68 131.41 611.08 139.87 C 690.49 109.68 769.90 79.48 849.32 49.30 C 852.61 48.00 855.72 46.30 858.98 44.91 C 855.21 34.11 851.35 23.33 847.61 12.51 C 846.77 10.58 847.36 8.11 849.25 7.04 C 851.47 5.57 854.81 6.78 855.53 9.35 C 859.47 20.28 863.24 31.27 867.12 42.21 C 875.67 40.12 885.98 39.79 892.82 46.24 C 900.64 53.87 901.65 65.64 901.58 75.97 C 901.24 82.60 901.15 90.23 896.34 95.39 C 891.88 99.58 885.23 97.04 880.67 94.37 C 867.23 86.13 857.14 73.73 846.62 62.24 C 844.93 60.48 842.22 61.27 840.10 61.45 C 832.12 62.96 824.57 66.13 817.05 69.10 C 791.29 79.85 766.42 92.61 741.70 105.56 C 750.47 116.40 759.47 127.05 768.31 137.84 C 743.76 155.37 719.19 172.88 694.63 190.41 C 701.21 195.71 707.32 201.63 713.09 207.72 C 786.86 207.93 860.65 207.75 934.43 207.81 C 934.46 184.19 934.40 160.57 934.46 136.95 C 934.12 132.15 938.15 127.60 943.02 127.65 C 948.09 127.31 952.51 131.99 952.11 137.01 C 952.15 160.41 952.11 183.80 952.13 207.19 C 963.05 206.33 974.72 206.92 984.45 212.48 C 991.33 216.34 996.07 223.46 997.39 231.20 C 1000.27 247.68 996.16 264.79 988.39 279.40 C 983.16 288.95 976.10 298.07 966.25 303.16 C 960.80 305.85 953.68 307.38 948.35 303.65 C 942.94 299.92 939.68 293.98 936.84 288.22 C 929.29 272.22 925.56 254.73 918.15 238.68 C 915.89 234.35 913.24 229.11 908.01 228.03 C 901.75 226.60 895.31 226.32 888.93 225.93 C 860.31 224.68 831.64 225.21 803.01 225.85 C 773.18 226.44 743.36 227.64 713.54 228.74 C 710.04 240.31 703.91 250.93 696.18 260.19 C 725.72 272.51 755.27 284.80 784.82 297.12 C 793.64 300.73 802.33 304.70 811.44 307.56 C 816.52 296.85 821.23 285.96 826.47 275.35 C 828.79 271.34 835.73 274.58 833.99 278.96 C 829.27 289.82 824.08 300.49 819.18 311.28 C 826.00 315.30 832.82 321.01 834.48 329.16 C 836.18 337.72 831.80 345.99 826.65 352.51 C 821.82 358.39 816.45 364.08 809.77 367.85 C 806.23 369.85 801.34 370.79 798.00 367.92 C 794.13 364.56 792.75 359.33 791.67 354.53 C 788.94 340.18 790.09 325.50 790.46 311.02 C 789.42 307.58 785.58 306.02 782.78 304.19 C 768.46 296.67 753.05 291.52 737.81 286.24 C 720.87 280.56 703.79 275.33 686.63 270.36 C 663.78 291.85 634.87 306.06 604.87 314.58 C 560.01 327.30 511.40 326.20 467.13 311.59 C 440.82 302.89 415.64 289.61 395.36 270.52 C 369.02 278.26 342.68 286.20 317.11 296.23 C 309.53 299.35 301.79 302.34 294.99 306.99 C 293.42 308.23 291.28 309.66 291.49 311.95 C 292.03 325.91 292.90 340.03 290.49 353.87 C 289.47 358.75 288.17 363.96 284.55 367.61 C 281.61 370.58 276.89 370.35 273.39 368.57 C 266.93 365.42 261.85 360.13 257.13 354.83 C 251.32 348.02 245.97 339.39 247.39 330.05 C 248.75 321.55 255.80 315.57 262.82 311.42 C 257.95 300.84 252.97 290.30 248.20 279.67 C 246.57 276.67 249.74 272.87 252.99 273.77 C 254.87 274.06 255.84 275.82 256.55 277.40 C 261.20 287.51 265.88 297.62 270.55 307.72 C 273.78 306.50 277.11 305.57 280.33 304.30 C 315.49 289.64 350.67 275.00 385.83 260.34 C 378.19 251.12 371.86 240.62 368.62 229.02 C 319.14 226.90 269.61 225.22 220.07 225.38 C 207.33 225.57 194.57 225.68 181.88 226.92 C 178.30 227.41 174.53 227.60 171.22 229.20 C 167.26 231.75 165.16 236.19 163.15 240.28 C 155.54 257.45 151.83 276.19 142.88 292.78 C 139.59 298.49 135.16 304.87 128.14 305.93 C 119.87 306.66 112.19 302.10 106.37 296.62 C 96.67 287.31 90.26 274.98 86.58 262.15 C 83.68 251.74 82.61 240.60 84.91 229.96 C 86.51 222.45 91.50 215.79 98.30 212.20 C 107.91 207.06 119.22 206.49 129.87 207.34 C 129.90 183.91 129.84 160.47 129.90 137.04 C 129.53 132.07 133.95 127.49 138.95 127.79 C 143.75 127.76 147.80 132.16 147.54 136.92 C 147.60 160.59 147.54 184.27 147.57 207.94 C 221.43 207.96 295.28 207.90 369.14 207.97 C 374.51 201.47 380.94 195.98 387.37 190.56 C 362.81 173.05 338.25 155.53 313.69 138.00 C 322.54 127.24 331.45 116.53 340.31 105.78 C 312.09 91.01 283.74 76.21 253.88 65.00 C 248.13 63.35 241.94 60.21 235.95 61.89 C 225.12 73.40 215.05 86.15 201.39 94.49 C 197.23 96.83 191.88 99.20 187.26 96.75 C 182.63 93.88 181.52 87.98 180.86 82.98 C 179.96 73.53 180.10 63.62 183.63 54.67 C 185.93 48.77 190.76 43.68 196.98 42.01 C 202.83 40.30 209.04 41.05 214.88 42.38 C 218.78 31.39 222.54 20.36 226.52 9.40 M 389.68 229.14 C 394.59 242.87 405.11 253.93 417.15 261.81 C 442.85 278.59 471.05 291.97 501.03 298.97 C 526.68 304.84 553.50 304.28 579.22 299.18 C 610.64 292.53 639.94 278.18 666.56 260.50 C 677.53 252.89 687.73 242.45 690.86 229.08 C 667.71 229.28 644.53 228.90 621.39 229.27 C 595.37 245.85 569.68 262.97 543.73 279.68 C 542.12 280.51 539.95 280.40 538.33 279.67 C 512.80 263.01 487.66 245.69 462.03 229.22 C 437.92 229.00 413.80 229.17 389.68 229.14 Z" />
<path fill="#3b3b3d" opacity="1.00" d=" M 237.13 26.27 C 241.31 24.94 245.75 26.01 249.93 26.81 C 261.08 29.35 272.10 33.09 281.95 39.00 C 284.70 40.88 287.94 42.76 289.18 46.03 C 289.68 48.87 285.97 49.34 283.96 49.46 C 275.30 49.57 266.81 47.16 258.72 44.29 C 253.38 42.44 250.29 37.25 245.31 34.80 C 242.05 32.93 238.31 31.90 235.35 29.54 C 234.17 28.24 235.99 26.75 237.13 26.27 Z" />
<path fill="#3b3b3d" opacity="1.00" d=" M 801.22 38.14 C 812.32 31.90 824.62 27.81 837.17 25.74 C 840.70 25.35 845.88 24.76 847.37 28.93 C 842.61 32.56 836.39 33.75 832.00 37.92 C 829.16 40.58 826.18 43.28 822.39 44.48 C 814.54 47.12 806.37 49.45 798.03 49.29 C 796.04 49.16 792.51 48.79 792.78 46.03 C 794.14 42.25 798.02 40.22 801.22 38.14 Z" />
<path fill="#3b3b3d" opacity="1.00" d=" M 10.97 158.97 C 22.88 154.97 35.49 153.65 47.96 152.96 C 55.29 152.73 62.80 152.05 69.96 154.05 C 76.46 155.73 82.25 159.38 88.74 161.11 C 96.70 163.10 104.97 163.14 113.05 164.42 C 115.03 164.84 117.42 165.18 118.60 167.05 C 119.01 171.32 115.20 174.28 111.72 175.85 C 104.34 179.12 96.23 180.18 88.28 181.14 C 70.10 183.05 51.68 183.38 33.50 181.22 C 25.54 180.21 17.56 178.83 10.01 176.06 C 6.17 174.57 2.00 172.74 0.00 168.89 L 0.00 166.60 C 2.08 162.32 6.82 160.56 10.97 158.97 Z" />
<path fill="#3b3b3d" opacity="1.00" d=" M 193.65 153.86 C 213.88 152.08 234.42 152.02 254.45 155.67 C 261.37 157.09 268.50 158.65 274.56 162.47 C 276.91 163.91 279.32 166.88 277.71 169.72 C 274.87 174.01 269.53 175.55 264.93 177.17 C 249.72 181.61 233.73 182.67 217.96 182.68 C 210.05 182.80 202.70 179.62 195.63 176.45 C 185.52 171.87 174.15 172.75 163.48 170.62 C 161.75 170.17 159.09 169.34 159.61 167.02 C 160.07 163.00 163.90 160.66 167.26 159.18 C 175.64 155.77 184.73 154.79 193.65 153.86 Z" />
<path fill="#3b3b3d" opacity="1.00" d=" M 839.54 153.75 C 858.60 151.76 877.90 152.25 896.89 154.69 C 903.74 155.71 910.76 156.87 916.96 160.13 C 919.84 161.67 922.73 164.44 922.38 168.01 C 921.72 169.79 919.55 170.15 917.94 170.60 C 909.43 172.14 900.67 172.02 892.27 174.18 C 885.99 175.92 880.36 179.40 874.08 181.10 C 866.25 183.32 858.02 182.44 850.00 182.18 C 837.12 181.30 823.98 179.96 811.90 175.13 C 808.69 173.61 804.62 171.85 803.80 168.02 C 803.57 164.45 807.12 162.36 809.86 160.90 C 819.12 156.48 829.44 154.98 839.54 153.75 Z" />
<path fill="#3b3b3d" opacity="1.00" d=" M 1011.84 153.94 C 1018.71 151.97 1025.92 152.53 1032.97 152.75 C 1045.38 153.38 1057.90 154.64 1069.79 158.40 C 1074.35 160.00 1079.45 161.80 1082.00 166.23 L 1082.00 168.71 C 1080.01 172.62 1075.77 174.43 1071.91 175.93 C 1063.50 178.98 1054.61 180.38 1045.76 181.38 C 1027.88 183.22 1009.81 182.80 991.97 180.78 C 984.38 179.80 976.62 178.69 969.64 175.37 C 966.39 173.81 963.06 170.91 963.38 166.96 C 964.53 164.99 967.01 164.68 969.04 164.25 C 976.63 163.04 984.38 162.95 991.91 161.27 C 998.88 159.77 1004.97 155.77 1011.84 153.94 Z" />
<path fill="#3b3b3d" opacity="1.00" d=" M 307.49 262.80 C 311.11 262.09 315.09 261.00 318.64 262.48 C 321.10 264.02 318.90 267.08 317.48 268.56 C 311.49 274.62 303.79 278.64 296.14 282.22 C 290.75 284.87 284.51 283.11 278.93 285.03 C 275.29 285.97 271.85 287.94 268.02 287.98 C 266.62 286.74 267.29 284.59 268.23 283.28 C 270.65 279.98 274.21 277.78 277.63 275.65 C 286.96 270.09 296.92 265.40 307.49 262.80 Z" />
<path fill="#3b3b3d" opacity="1.00" d=" M 763.26 262.38 C 766.68 260.86 770.56 261.88 774.09 262.54 C 785.57 265.31 796.35 270.49 806.34 276.72 C 809.41 278.82 812.83 280.97 814.48 284.45 C 814.83 285.50 815.10 287.37 813.77 287.83 C 810.04 287.70 806.69 285.82 803.15 284.89 C 797.59 282.96 791.38 284.70 785.98 282.11 C 778.31 278.55 770.59 274.51 764.57 268.46 C 763.17 266.97 760.92 264.03 763.26 262.38 Z" />
<path fill="#3b3b3d" opacity="1.00" d=" M 245.45 295.60 C 246.79 295.27 248.29 294.63 249.60 295.46 C 250.72 299.64 246.43 302.44 243.61 304.67 C 233.34 311.56 221.99 317.03 209.99 320.14 C 206.22 320.91 202.07 322.07 198.36 320.52 C 196.03 318.91 198.18 315.98 199.56 314.51 C 205.32 308.62 212.77 304.72 220.12 301.17 C 223.77 299.27 227.93 299.11 231.95 299.04 C 236.68 298.99 241.01 296.95 245.45 295.60 Z" />
<path fill="#3b3b3d" opacity="1.00" d=" M 832.40 295.35 C 835.72 294.12 839.16 296.70 842.44 297.41 C 848.45 299.94 855.34 297.85 861.25 300.74 C 867.67 303.68 873.92 307.12 879.45 311.55 C 881.54 313.39 883.94 315.34 884.68 318.16 C 884.90 321.11 881.07 321.19 878.99 321.09 C 870.61 320.42 862.66 317.27 855.05 313.87 C 848.47 310.70 841.87 307.37 836.16 302.78 C 834.06 300.95 831.36 298.43 832.40 295.35 Z" />
</g>
</svg>
